<svg xmlns="http://www.w3.org/2000/svg" viewBox="0 0 256 256" width="256" height="256" fill="currentColor" class="h-6 w-auto"><path d="m232.9 161.4c-4.2-2.4-7.8-4.4-11.4-6.5-5.4-3.1-10.8-6.4-16.4-9.4-2.1-1.1-2.8-2.5-2.8-4.8 0.1-17.6 0-35.2 0.1-52.8 0-2.3-0.7-3.5-2.7-4.6-19.9-11.4-39.8-23-59.6-34.5-3.4-1.9-6.8-3.8-10.1-5.8-1.8-1.1-3.2-0.9-4.9 0.1-12 7.1-24.2 14-36.3 21-10.9 6.3-21.8 12.6-32.8 18.8-2.4 1.4-3.2 3.1-3.2 5.8q0.1 39.6 0.1 79.3c0 2.3 0.6 3.6 2.7 4.8q34.7 19.9 69.3 40c2.1 1.2 3.6 1.2 5.6 0 4.7-3 9.5-5.7 14.4-8.4 0.9-0.4 2.5-0.6 3.3-0.1 9.2 5.1 18.3 10.5 27.4 15.8 0.4 0.2 0.7 0.6 1.3 1.1-1 0.7-1.8 1.3-2.6 1.8-14.3 8.2-28.6 16.4-42.8 24.7-2.7 1.6-4.8 1.8-7.6 0.1-14.6-8.6-29.3-16.9-44-25.4-18.1-10.5-36.2-21-54.4-31.4-2.6-1.4-3.5-3.2-3.5-6.2 0.1-20.3 0-40.7 0-61.1 0-17.7 0.1-35.4 0-53.1 0-2.6 0.8-4.1 3.1-5.3 16.9-9.7 33.8-19.5 50.8-29.3 16-9.2 32.1-18.4 48.1-27.8 2.6-1.6 4.6-1.6 7.3 0 22 12.8 44.1 25.5 66.2 38.2 11 6.3 21.9 12.7 32.9 19 2 1.2 2.9 2.5 2.9 4.9-0.1 29-0.1 58-0.1 87 0 1.1-0.1 2.2-0.3 4.1z"></path><path d="m150.4 113.9c-5.8-3.4-11.4-6.1-16.4-9.7-4.7-3.3-8.5-3.3-13.2 0-4.6 3.3-9.7 5.8-14.6 8.5-2 1.1-2.7 2.5-2.6 4.7 0 18.9 0 37.8 0 56.7 0 1.5 0 2.9 0 4.7-1-0.3-1.7-0.3-2.2-0.6-9.3-5.4-18.7-10.9-28.1-16.3-1.7-0.9-2.3-2.1-2.3-4q0.1-29.8 0-59.7c0-2.1 0.7-3.2 2.5-4.2q25.6-14.7 51.2-29.6c2-1.2 3.6-1.1 5.6 0.1q25.7 14.9 51.5 29.8c1.5 0.9 2.2 1.9 2.2 3.7 0 9.9-0.1 19.8 0 29.7 0.1 2.3-1.1 3.4-2.8 4.4-6.7 3.7-13.3 7.6-20 11.4-0.8 0.5-1.5 1-2.8 1.9 25 14.4 49.6 28.6 74.7 43.2-1.3 0.9-2.1 1.6-3 2.2-8.3 4.8-16.7 9.5-25 14.4-1.5 0.9-2.6 0.9-4.1 0-15.8-9.1-31.6-18.2-47.4-27.3-8.1-4.7-16.1-9.5-24.3-14-1.8-1.1-2.5-2.3-2.5-4.2q0.1-14.6 0-29.2c0-2.1 0.9-3.2 2.6-4.2 6.4-3.6 12.7-7.2 19-10.9 0.5-0.3 1-0.7 2-1.5z"></path></svg>